<svg width="56" height="56" viewBox="0 0 56 56" fill="none" xmlns="http://www.w3.org/2000/svg">
<path d="M28.0513 0.554688H27.9997C20.7211 0.554688 13.7406 3.4461 8.59383 8.59285C3.44708 13.7396 0.555664 20.7201 0.555664 27.9987C0.555664 35.2773 3.44708 42.2578 8.59383 47.4045C13.7406 52.5513 20.7211 55.4427 27.9997 55.4427C28.2384 55.4427 28.4673 55.3479 28.6361 55.1791C28.8048 55.0103 28.8997 54.7814 28.8997 54.5427C28.8997 54.304 28.8048 54.0751 28.6361 53.9063C28.4673 53.7375 28.2384 53.6427 27.9997 53.6427C21.1985 53.6427 14.6758 50.9409 9.86662 46.1317C5.05743 41.3225 2.35566 34.7999 2.35566 27.9987C2.35566 21.1975 5.05743 14.6748 9.86662 9.86564C14.6758 5.05646 21.1985 2.35469 27.9997 2.35469H28.0483C32.7303 2.36391 37.3204 3.65464 41.321 6.08695C45.3217 8.51926 48.5802 12.0003 50.7432 16.1527C52.9062 20.3051 53.8913 24.9705 53.5915 29.6429C53.2918 34.3153 51.7187 38.8165 49.0429 42.6585C48.6471 43.2245 48.1317 43.6966 47.5332 44.0413C46.9348 44.3861 46.2678 44.5951 45.5797 44.6535C44.8779 44.7151 44.1711 44.6222 43.509 44.3814C42.847 44.1406 42.2457 43.7577 41.7475 43.2597L40.8997 42.4089C41.2261 42.2139 41.5471 42.0057 41.8597 41.7813C42.4899 41.3395 43.0804 40.8434 43.6243 40.2987H43.6273C44.0908 39.8283 44.3499 39.1939 44.3479 38.5335C44.346 37.8731 44.0833 37.2402 43.6171 36.7725L38.9563 32.1171C38.4879 31.65 37.8534 31.3877 37.192 31.3877C36.5305 31.3877 35.896 31.65 35.4277 32.1171L34.7317 32.8107C34.5028 33.0378 34.2517 33.2414 33.9823 33.4185C33.0875 33.997 32.0218 34.2522 30.9621 34.1416C29.9024 34.0311 28.9123 33.5614 28.1563 32.8107L22.0657 26.7201C21.4932 26.142 21.1726 25.361 21.1737 24.5474C21.1748 23.7339 21.4976 22.9538 22.0717 22.3773L23.8813 20.5587C24.1135 20.3276 24.2979 20.053 24.4236 19.7504C24.5494 19.4479 24.6142 19.1235 24.6142 18.7959C24.6142 18.4683 24.5494 18.1439 24.4236 17.8413C24.2979 17.5388 24.1135 17.2641 23.8813 17.0331L19.2283 12.3807C18.9979 12.1468 18.7232 11.9613 18.4201 11.8351C18.1171 11.7089 17.7919 11.6445 17.4637 11.6457C16.8377 11.6433 16.2342 11.8793 15.7759 12.3057C15.7481 12.3275 15.7216 12.3509 15.6967 12.3759C15.1563 12.9169 14.6625 13.5026 14.2207 14.1267C12.4986 16.5275 11.5917 19.4172 11.6331 22.3714C11.6746 25.3257 12.6623 28.1888 14.4511 30.5403C17.5922 34.7036 21.2994 38.4078 25.4653 41.5455C27.8744 43.3714 30.8135 44.3615 33.8365 44.3655C35.6825 44.3634 37.5091 43.9889 39.2071 43.2645L40.4743 44.5335C41.1573 45.219 41.9829 45.7459 42.8924 46.0766C43.8019 46.4074 44.773 46.534 45.7369 46.4475C46.6875 46.3661 47.6087 46.0767 48.4351 45.5997C49.2614 45.1228 49.9728 44.4699 50.5189 43.6875C53.383 39.576 55.0669 34.7588 55.388 29.7583C55.709 24.7578 54.655 19.7648 52.3401 15.3208C50.0252 10.8768 46.5379 7.15128 42.2563 4.5483C37.9746 1.94532 33.062 0.564199 28.0513 0.554688ZM26.5513 40.1079C22.519 37.0727 18.9305 33.4891 15.8899 29.4609C14.4453 27.5606 13.5993 25.2732 13.4598 22.8903C13.3202 20.5073 13.8934 18.1368 15.1063 16.0809L18.4381 19.4133C18.6069 19.5821 18.8359 19.677 19.0747 19.677C19.3134 19.677 19.5424 19.5821 19.7113 19.4133C19.8801 19.2445 19.975 19.0155 19.975 18.7767C19.975 18.5379 19.8801 18.3089 19.7113 18.1401L16.1503 14.5767C16.3903 14.2767 16.6423 13.9869 16.9129 13.7121C16.9369 13.6933 16.96 13.6733 16.9819 13.6521C17.1128 13.5261 17.2877 13.456 17.4695 13.4566C17.6513 13.4573 17.8256 13.5287 17.9557 13.6557L22.6117 18.3117C22.6766 18.3762 22.7281 18.453 22.7631 18.5375C22.7981 18.6221 22.816 18.7128 22.8157 18.8043C22.8156 18.8945 22.7975 18.9838 22.7624 19.0669C22.7274 19.1501 22.6761 19.2254 22.6117 19.2885L20.7907 21.1149C19.8829 22.0297 19.3735 23.2662 19.3735 24.555C19.3735 25.8437 19.8829 27.0803 20.7907 27.9951L26.8837 34.0833C27.8427 35.034 29.0747 35.6613 30.4077 35.8777C31.7406 36.094 33.1078 35.8885 34.3183 35.2899L37.9783 38.9499C38.148 39.1138 38.3753 39.2045 38.6113 39.2025C38.8473 39.2004 39.073 39.1058 39.2399 38.9389C39.4068 38.7721 39.5014 38.5463 39.5035 38.3103C39.5055 38.0744 39.4148 37.847 39.2509 37.6773L35.8237 34.2501C35.8837 34.1949 35.9491 34.1427 36.0037 34.0857L36.6997 33.3867C36.8303 33.2564 37.0072 33.1832 37.1917 33.1832C37.3761 33.1832 37.5531 33.2564 37.6837 33.3867L42.3445 38.0421C42.4747 38.1726 42.5483 38.3493 42.5492 38.5337C42.5501 38.7181 42.4783 38.8955 42.3493 39.0273C41.8778 39.499 41.3658 39.9285 40.8193 40.3107C38.732 41.8083 36.2193 42.5968 33.6507 42.5603C31.082 42.5238 28.5927 41.6642 26.5489 40.1079H26.5513Z" fill="black"/>
</svg>
